{
    "asset" : {
        "generator" : "Khronos glTF Blender I/O v0.9.35",
        "version" : "2.0"
    },
    "scene" : 0,
    "scenes" : [
        {
            "name" : "Scene",
            "nodes" : [
                0,
                1,
                8
            ]
        }
    ],
    "nodes" : [
        {
            "name" : "Light",
            "rotation" : [
                0.16907575726509094,
                0.7558803558349609,
                -0.27217137813568115,
                0.570947527885437
            ],
            "translation" : [
                4.076245307922363,
                5.903861999511719,
                -1.0054539442062378
            ]
        },
        {
            "name" : "Camera",
            "rotation" : [
                0.4945571720600128,
                -0.5053842067718506,
                0.4945572018623352,
                0.5053842067718506
            ],
            "translation" : [
                -30.929948806762695,
                7.729522705078125,
                0.20350098609924316
            ]
        },
        {
            "mesh" : 0,
            "name" : "door_003_01 - Default_0"
        },
        {
            "children" : [
                2
            ],
            "name" : "Node",
            "translation" : [
                0.0025190634187310934,
                0,
                0
            ]
        },
        {
            "children" : [
                3
            ],
            "name" : "door_003",
            "rotation" : [
                -0.7071068286895752,
                0,
                0,
                0.7071068286895752
            ],
            "scale" : [
                2.789398670196533,
                2.789398670196533,
                2.789398670196533
            ],
            "translation" : [
                0,
                0,
                -10.550734519958496
            ]
        },
        {
            "children" : [
                4
            ],
            "name" : "RootNode"
        },
        {
            "children" : [
                5
            ],
            "name" : "e6ee09ec7f0a4821907fd741c4ed66d4.fbx",
            "rotation" : [
                0.7071068286895752,
                0,
                0,
                0.7071068286895752
            ]
        },
        {
            "children" : [
                6
            ],
            "name" : "RootNode (model correction matrix)"
        },
        {
            "children" : [
                7
            ],
            "name" : "RootNode (gltf orientation matrix)"
        }
    ],
    "materials" : [
        {
            "doubleSided" : true,
            "name" : "01_-_Default",
            "normalTexture" : {
                "index" : 0,
                "texCoord" : 0
            },
            "occlusionTexture" : {
                "index" : 1,
                "texCoord" : 0
            },
            "pbrMetallicRoughness" : {
                "baseColorTexture" : {
                    "index" : 2,
                    "texCoord" : 0
                },
                "metallicRoughnessTexture" : {
                    "index" : 1,
                    "texCoord" : 0
                }
            }
        }
    ],
    "meshes" : [
        {
            "name" : "door_003_01 - Default_0",
            "primitives" : [
                {
                    "attributes" : {
                        "POSITION" : 0,
                        "NORMAL" : 1,
                        "TEXCOORD_0" : 2
                    },
                    "indices" : 3,
                    "material" : 0
                }
            ]
        }
    ],
    "textures" : [
        {
            "source" : 0
        },
        {
            "source" : 1
        },
        {
            "source" : 2
        }
    ],
    "images" : [
        {
            "mimeType" : "image/jpg",
            "name" : "01_-_Default_normal",
            "uri" : "01_-_Default_normal.jpg"
        },
        {
            "mimeType" : "image/jpg",
            "name" : "01_-_Default_metallicRoughness",
            "uri" : "01_-_Default_metallicRoughness.jpg"
        },
        {
            "mimeType" : "image/jpg",
            "name" : "01_-_Default_baseColor",
            "uri" : "01_-_Default_baseColor.jpg"
        }
    ],
    "accessors" : [
        {
            "bufferView" : 0,
            "componentType" : 5126,
            "count" : 9837,
            "max" : [
                1.1456977128982544,
                3.738820791244507,
                4.979591369628906
            ],
            "min" : [
                -1.1507368087768555,
                -3.6680943965911865,
                -4.979589462280273
            ],
            "type" : "VEC3"
        },
        {
            "bufferView" : 1,
            "componentType" : 5126,
            "count" : 9837,
            "type" : "VEC3"
        },
        {
            "bufferView" : 2,
            "componentType" : 5126,
            "count" : 9837,
            "type" : "VEC2"
        },
        {
            "bufferView" : 3,
            "componentType" : 5123,
            "count" : 17913,
            "type" : "SCALAR"
        }
    ],
    "bufferViews" : [
        {
            "buffer" : 0,
            "byteLength" : 118044,
            "byteOffset" : 0
        },
        {
            "buffer" : 0,
            "byteLength" : 118044,
            "byteOffset" : 118044
        },
        {
            "buffer" : 0,
            "byteLength" : 78696,
            "byteOffset" : 236088
        },
        {
            "buffer" : 0,
            "byteLength" : 35826,
            "byteOffset" : 314784
        }
    ],
    "buffers" : [
        {
            "byteLength" : 350612,
            "uri" : "DoorTest2.bin"
        }
    ]
}
