{
  "accessors": [
    {
      "bufferView": 2,
      "componentType": 5126,
      "count": 812,
      "max": [
        599.9998779296875,
        317.804931640625,
        821.72625732421875
      ],
      "min": [
        -600,
        -317.8048095703125,
        2.3003805836196989e-05
      ],
      "type": "VEC3"
    },
    {
      "bufferView": 2,
      "byteOffset": 9744,
      "componentType": 5126,
      "count": 812,
      "max": [
        1,
        1,
        1
      ],
      "min": [
        -1,
        -1,
        -1
      ],
      "type": "VEC3"
    },
    {
      "bufferView": 3,
      "componentType": 5126,
      "count": 812,
      "max": [
        1,
        1,
        1,
        1
      ],
      "min": [
        -1,
        -1,
        -1,
        1
      ],
      "type": "VEC4"
    },
    {
      "bufferView": 1,
      "componentType": 5126,
      "count": 812,
      "max": [
        0.99036037921905518,
        0.92447686195373535
      ],
      "min": [
        0.0092769572511315346,
        0.013334318995475769
      ],
      "type": "VEC2"
    },
    {
      "bufferView": 0,
      "componentType": 5125,
      "count": 1824,
      "max": [
        811
      ],
      "min": [
        0
      ],
      "type": "SCALAR"
    }
  ],
  "asset": {
    "extras": {
      "author": "UHO Development (https://sketchfab.com/MaxWormsHd)",
      "license": "CC-BY-4.0 (http://creativecommons.org/licenses/by/4.0/)",
      "source": "https://sketchfab.com/models/35be28efe99a43c5b76cd8fed3f5c89a",
      "title": "Chest"
    },
    "generator": "Sketchfab-3.19.3",
    "version": "2.0"
  },
  "bufferViews": [
    {
      "buffer": 0,
      "byteLength": 7296,
      "byteOffset": 0,
      "name": "floatBufferViews",
      "target": 34963
    },
    {
      "buffer": 0,
      "byteLength": 6496,
      "byteOffset": 7296,
      "byteStride": 8,
      "name": "floatBufferViews",
      "target": 34962
    },
    {
      "buffer": 0,
      "byteLength": 19488,
      "byteOffset": 13792,
      "byteStride": 12,
      "name": "floatBufferViews",
      "target": 34962
    },
    {
      "buffer": 0,
      "byteLength": 12992,
      "byteOffset": 33280,
      "byteStride": 16,
      "name": "floatBufferViews",
      "target": 34962
    }
  ],
  "buffers": [
    {
      "byteLength": 46272,
      "uri": "scene.bin"
    }
  ],
  "images": [
    {
      "uri": "textures/Chest_baseColor.jpg"
    },
    {
      "uri": "textures/Chest_normal.jpg"
    },
    {
      "uri": "textures/Chest_metallicRoughness.png"
    }
  ],
  "materials": [
    {
      "doubleSided": true,
      "name": "Chest",
      "normalTexture": {
        "index": 1,
        "scale": 1,
        "texCoord": 0
      },
      "occlusionTexture": {
        "index": 2,
        "strength": 1,
        "texCoord": 0
      },
      "pbrMetallicRoughness": {
        "baseColorFactor": [
          1,
          1,
          1,
          1
        ],
        "baseColorTexture": {
          "index": 0,
          "texCoord": 0
        },
        "metallicFactor": 1,
        "metallicRoughnessTexture": {
          "index": 2,
          "texCoord": 0
        },
        "roughnessFactor": 1
      }
    }
  ],
  "meshes": [
    {
      "name": "Chest_Chest_0",
      "primitives": [
        {
          "attributes": {
            "NORMAL": 1,
            "POSITION": 0,
            "TANGENT": 2,
            "TEXCOORD_0": 3
          },
          "indices": 4,
          "material": 0,
          "mode": 4
        }
      ]
    }
  ],
  "nodes": [
    {
      "children": [
        1
      ],
      "name": "RootNode (gltf orientation matrix)",
      "rotation": [
        -0.70710678118654746,
        -0,
        -0,
        0.70710678118654757
      ]
    },
    {
      "children": [
        2
      ],
      "name": "RootNode (model correction matrix)"
    },
    {
      "children": [
        3
      ],
      "matrix": [
        1,
        0,
        0,
        0,
        0,
        0,
        1,
        0,
        0,
        -1,
        0,
        0,
        0,
        0,
        0,
        1
      ],
      "name": "ce46d3bcf32041a09e8186e51f5af8c7.fbx"
    },
    {
      "children": [
        4
      ],
      "name": "RootNode"
    },
    {
      "children": [
        5
      ],
      "matrix": [
        -0.9999999999999889,
        -1.2246467991473396e-16,
        1.509958026505508e-07,
        0,
        -6.7227007906766565e-15,
        0.999999999999999,
        -4.3711387965112888e-08,
        0,
        -1.5099580265055064e-07,
        -4.3711387965113404e-08,
        -0.99999999999998801,
        0,
        0,
        0,
        0,
        1
      ],
      "name": "Chest"
    },
    {
      "children": [
        6
      ],
      "matrix": [
        -1,
        -7.1054274405412679e-15,
        -1.2246467991473532e-16,
        0,
        -1.2246467991473576e-16,
        6.1232339957366785e-17,
        1,
        0,
        -7.1054274405412679e-15,
        1,
        -6.123233995736766e-17,
        0,
        -6.1035141698084772e-05,
        -3.0517585400957614e-05,
        -6.103515625e-05,
        1
      ],
      "name": ""
    },
    {
      "mesh": 0,
      "name": "Chest_Chest_0"
    }
  ],
  "samplers": [
    {
      "magFilter": 9729,
      "minFilter": 9987,
      "wrapS": 10497,
      "wrapT": 10497
    }
  ],
  "scene": 0,
  "scenes": [
    {
      "name": "OSG_Scene",
      "nodes": [
        0
      ]
    }
  ],
  "textures": [
    {
      "sampler": 0,
      "source": 0
    },
    {
      "sampler": 0,
      "source": 1
    },
    {
      "sampler": 0,
      "source": 2
    }
  ]
}

