{
  "accessors": [
    {
      "bufferView": 2,
      "componentType": 5126,
      "count": 1258,
      "max": [
        120.66353607177734,
        115.42478942871094,
        815.68865966796875
      ],
      "min": [
        -111.66551208496094,
        -109.12843322753906,
        -0.62043160200119019
      ],
      "type": "VEC3"
    },
    {
      "bufferView": 2,
      "byteOffset": 15096,
      "componentType": 5126,
      "count": 1258,
      "max": [
        1,
        1,
        1
      ],
      "min": [
        -1,
        -1,
        -1
      ],
      "type": "VEC3"
    },
    {
      "bufferView": 3,
      "componentType": 5126,
      "count": 1258,
      "max": [
        1,
        1,
        0.99909824132919312,
        1
      ],
      "min": [
        -1,
        -1,
        -1,
        -1
      ],
      "type": "VEC4"
    },
    {
      "bufferView": 1,
      "componentType": 5126,
      "count": 1258,
      "max": [
        1.0096914768218994,
        1.0048400163650513
      ],
      "min": [
        -0.016404181718826294,
        0
      ],
      "type": "VEC2"
    },
    {
      "bufferView": 0,
      "componentType": 5125,
      "count": 3702,
      "max": [
        1257
      ],
      "min": [
        0
      ],
      "type": "SCALAR"
    },
    {
      "bufferView": 2,
      "byteOffset": 30192,
      "componentType": 5126,
      "count": 19,
      "max": [
        99.655372619628906,
        -32.882175445556641,
        327.29483032226562
      ],
      "min": [
        -98.707717895507812,
        -107.60748291015625,
        -0.62022513151168823
      ],
      "type": "VEC3"
    },
    {
      "bufferView": 2,
      "byteOffset": 30420,
      "componentType": 5126,
      "count": 19,
      "max": [
        0.86523681879043579,
        -0.49964863061904907,
        0.048001527786254883
      ],
      "min": [
        -0.86502927541732788,
        -0.9989205002784729,
        0.033168114721775055
      ],
      "type": "VEC3"
    },
    {
      "bufferView": 3,
      "byteOffset": 20128,
      "componentType": 5126,
      "count": 19,
      "max": [
        1,
        0.86608737707138062,
        0.20038740336894989,
        1
      ],
      "min": [
        0.46045640110969543,
        -0.85497230291366577,
        -0.39074820280075073,
        1
      ],
      "type": "VEC4"
    },
    {
      "bufferView": 1,
      "byteOffset": 10064,
      "componentType": 5126,
      "count": 19,
      "max": [
        0.98947584629058838,
        0.99834942817687988
      ],
      "min": [
        -0.0034690499305725098,
        0.0044804811477661133
      ],
      "type": "VEC2"
    },
    {
      "bufferView": 0,
      "byteOffset": 14808,
      "componentType": 5125,
      "count": 48,
      "max": [
        18
      ],
      "min": [
        0
      ],
      "type": "SCALAR"
    },
    {
      "bufferView": 2,
      "byteOffset": 30648,
      "componentType": 5126,
      "count": 18,
      "max": [
        73.262374877929688,
        -61.799842834472656,
        515.43798828125
      ],
      "min": [
        -52.585170745849609,
        -94.718353271484375,
        324.35867309570312
      ],
      "type": "VEC3"
    },
    {
      "bufferView": 2,
      "byteOffset": 30864,
      "componentType": 5126,
      "count": 18,
      "max": [
        0.64261192083358765,
        -0.76619184017181396,
        0.015021843835711479
      ],
      "min": [
        -0.335243821144104,
        -1,
        -0.016773339360952377
      ],
      "type": "VEC3"
    },
    {
      "bufferView": 3,
      "byteOffset": 20432,
      "componentType": 5126,
      "count": 18,
      "max": [
        -0.76614147424697876,
        0.33528167009353638,
        9.6276235126424581e-05,
        1
      ],
      "min": [
        -1,
        -0.64256948232650757,
        -0.012041952461004257,
        1
      ],
      "type": "VEC4"
    },
    {
      "bufferView": 1,
      "byteOffset": 10216,
      "componentType": 5126,
      "count": 18,
      "max": [
        0.99817991256713867,
        0.78397619724273682
      ],
      "min": [
        0.20380355417728424,
        0.00050004827789962292
      ],
      "type": "VEC2"
    },
    {
      "bufferView": 0,
      "byteOffset": 15000,
      "componentType": 5125,
      "count": 60,
      "max": [
        17
      ],
      "min": [
        0
      ],
      "type": "SCALAR"
    }
  ],
  "asset": {
    "extras": {
      "author": "Anthony Yanez (https://sketchfab.com/paulyanez)",
      "license": "CC-BY-4.0 (http://creativecommons.org/licenses/by/4.0/)",
      "source": "https://sketchfab.com/models/92fb82acde1d43ae984eac3b82c9ea7f",
      "title": "Wooden Viking Statue"
    },
    "generator": "Sketchfab-3.43.3",
    "version": "2.0"
  },
  "bufferViews": [
    {
      "buffer": 0,
      "byteLength": 15240,
      "byteOffset": 0,
      "name": "floatBufferViews",
      "target": 34963
    },
    {
      "buffer": 0,
      "byteLength": 10360,
      "byteOffset": 15240,
      "byteStride": 8,
      "name": "floatBufferViews",
      "target": 34962
    },
    {
      "buffer": 0,
      "byteLength": 31080,
      "byteOffset": 25600,
      "byteStride": 12,
      "name": "floatBufferViews",
      "target": 34962
    },
    {
      "buffer": 0,
      "byteLength": 20720,
      "byteOffset": 56680,
      "byteStride": 16,
      "name": "floatBufferViews",
      "target": 34962
    }
  ],
  "buffers": [
    {
      "byteLength": 77400,
      "uri": "scene.bin"
    }
  ],
  "images": [
    {
      "uri": "textures/02_-_Default_normal.jpg"
    },
    {
      "uri": "textures/02_-_Default_baseColor.jpeg"
    },
    {
      "uri": "textures/07_-_Default_normal.jpg"
    },
    {
      "uri": "textures/07_-_Default_baseColor.jpg"
    },
    {
      "uri": "textures/03_-_Default_normal.jpg"
    },
    {
      "uri": "textures/03_-_Default_baseColor.jpeg"
    }
  ],
  "materials": [
    {
      "doubleSided": true,
      "emissiveFactor": [
        0,
        0,
        0
      ],
      "name": "02_-_Default",
      "normalTexture": {
        "index": 0,
        "scale": 1,
        "texCoord": 0
      },
      "pbrMetallicRoughness": {
        "baseColorFactor": [
          1,
          1,
          1,
          1
        ],
        "baseColorTexture": {
          "index": 1,
          "texCoord": 0
        },
        "metallicFactor": 1,
        "roughnessFactor": 0.90000000000000002
      }
    },
    {
      "doubleSided": true,
      "emissiveFactor": [
        0,
        0,
        0
      ],
      "name": "07_-_Default",
      "normalTexture": {
        "index": 2,
        "scale": 1,
        "texCoord": 0
      },
      "pbrMetallicRoughness": {
        "baseColorFactor": [
          1,
          1,
          1,
          1
        ],
        "baseColorTexture": {
          "index": 3,
          "texCoord": 0
        },
        "metallicFactor": 1,
        "roughnessFactor": 0.89297135959999996
      }
    },
    {
      "doubleSided": true,
      "emissiveFactor": [
        0,
        0,
        0
      ],
      "name": "03_-_Default",
      "normalTexture": {
        "index": 4,
        "scale": 1,
        "texCoord": 0
      },
      "pbrMetallicRoughness": {
        "baseColorFactor": [
          1,
          1,
          1,
          1
        ],
        "baseColorTexture": {
          "index": 5,
          "texCoord": 0
        },
        "metallicFactor": 1,
        "roughnessFactor": 0.90000000000000002
      }
    }
  ],
  "meshes": [
    {
      "name": "Wooden Viking_02 - Default_0",
      "primitives": [
        {
          "attributes": {
            "NORMAL": 1,
            "POSITION": 0,
            "TANGENT": 2,
            "TEXCOORD_0": 3
          },
          "indices": 4,
          "material": 0,
          "mode": 4
        }
      ]
    },
    {
      "name": "Wooden Viking_07 - Default_0",
      "primitives": [
        {
          "attributes": {
            "NORMAL": 6,
            "POSITION": 5,
            "TANGENT": 7,
            "TEXCOORD_0": 8
          },
          "indices": 9,
          "material": 1,
          "mode": 4
        }
      ]
    },
    {
      "name": "Wooden Viking_03 - Default_0",
      "primitives": [
        {
          "attributes": {
            "NORMAL": 11,
            "POSITION": 10,
            "TANGENT": 12,
            "TEXCOORD_0": 13
          },
          "indices": 14,
          "material": 2,
          "mode": 4
        }
      ]
    }
  ],
  "nodes": [
    {
      "children": [
        1
      ],
      "name": "RootNode (gltf orientation matrix)",
      "rotation": [
        -0.70710678118654746,
        -0,
        -0,
        0.70710678118654757
      ]
    },
    {
      "children": [
        2
      ],
      "name": "RootNode (model correction matrix)"
    },
    {
      "children": [
        3
      ],
      "matrix": [
        1,
        0,
        0,
        0,
        0,
        0,
        1,
        0,
        0,
        -1,
        0,
        0,
        0,
        0,
        0,
        1
      ],
      "name": "Wooden Viking.FBX"
    },
    {
      "children": [
        4
      ],
      "name": "RootNode"
    },
    {
      "children": [
        5,
        6,
        7
      ],
      "matrix": [
        0.81797915697097778,
        0,
        0,
        0,
        0,
        1.8162785874653093e-16,
        -0.81797915697097778,
        0,
        0,
        0.81797915697097778,
        1.8162785874653093e-16,
        0,
        0,
        -299.103515625,
        0,
        1
      ],
      "name": "Wooden Viking"
    },
    {
      "mesh": 0,
      "name": "Wooden Viking_02 - Default_0"
    },
    {
      "mesh": 1,
      "name": "Wooden Viking_07 - Default_0"
    },
    {
      "mesh": 2,
      "name": "Wooden Viking_03 - Default_0"
    }
  ],
  "samplers": [
    {
      "magFilter": 9729,
      "minFilter": 9987,
      "wrapS": 10497,
      "wrapT": 10497
    }
  ],
  "scene": 0,
  "scenes": [
    {
      "name": "OSG_Scene",
      "nodes": [
        0
      ]
    }
  ],
  "textures": [
    {
      "sampler": 0,
      "source": 0
    },
    {
      "sampler": 0,
      "source": 1
    },
    {
      "sampler": 0,
      "source": 2
    },
    {
      "sampler": 0,
      "source": 3
    },
    {
      "sampler": 0,
      "source": 4
    },
    {
      "sampler": 0,
      "source": 5
    }
  ]
}

