<?xml version="1.0" standalone="no"?><!DOCTYPE svg PUBLIC "-//W3C//DTD SVG 1.1//EN" "http://www.w3.org/Graphics/SVG/1.1/DTD/svg11.dtd"><svg class="icon" height="512" viewBox="0 0 1024 1024" version="1.1" xmlns="http://www.w3.org/2000/svg"><path d="M432.627255 543.514761c-15.296381-19.703761-24.39562-44.447305-24.39562-71.322395 0-17.161868 3.713578-33.478486 10.389628-48.137347-90.752934-7.139607-190.893678-39.288818-229.314733-52.621475l-5.002944 31.745005c-0.557702 7.099698-1.115404 14.237259-1.115404 21.548782 0 6.829546 0.652869 13.582343 1.115404 20.355607l3.214205 22.396079c16.851806 7.503904 55.06206 23.818475 103.758132 40.058344C333.005326 521.444093 382.411573 535.295566 432.627255 543.514761zM545.871435 588.590376c-9.312086 0.633427-18.738783 0.942465-28.262694 0.942465-121.651664 0-256.308527-49.233308-319.627644-75.572186 16.951067 49.674353 48.022737 93.88732 90.715071 127.401622l8.157797 6.387477 0 182.316326 267.103384 58.601676 0-137.541563 125.075647 0c16.546861 0 30.070876-13.488199 30.070876-30.091342l0-89.059362c-57.678654-2.501984-117.128651-22.89443-163.266457-43.38409L545.871435 588.591399zM524.629645 355.790262l4.619204 0c25.049512-8.732895 48.099485-14.235213 61.874209-16.506952 49.676399-8.195659 85.327364-15.83464 110.608144-22.777773-9.428743-20.395516-17.315364-44.771693-23.356964-56.431244-38.556131-74.341149-130.038682-110.609167-220.004693-110.609167-119.919207 0-221.946928 77.266781-259.520685 184.509271 37.286208 12.96529 154.37802 51.117215 246.399853 53.100382C466.047412 367.661637 493.943762 355.790262 524.629645 355.790262zM512 0c-282.770202 0-512 229.230822-512 512 0 282.770202 229.229798 512 512 512s512-229.229798 512-512C1024 229.230822 794.769178 0 512 0zM761.660106 720.996988c0 40.095183-32.590256 72.725348-72.628134 72.725348l-82.519412 0 0 147.836023-352.256786-77.266781 0-196.050118C181.89677 607.560426 140.589992 519.443529 140.589992 424.688445c0-175.272909 142.584416-317.761134 317.779553-317.761134 102.394065 0 201.283306 43.366693 251.518431 124.230396 8.696056 14.007015 23.684422 44.983517 30.821983 71.841212 40.287565-19.007913-9.022491-29.861098-9.022491-29.861098 20.701484-4.65502 47.079248-7.330966 59.391668-6.158257 7.331989 0.694825 21.644973 3.041266 30.631648 5.774517 14.71719 4.462638 27.897374 11.618619 27.91784 16.236799 0 0.444115-0.481977 11.314697-45.716204 29.996175-16.370853 6.771217-36.707017 13.793144-60.892859 21.047362-6.906294 2.075265-14.120602 4.155646-21.664416 6.251378-35.842323 10.042727-78.766948 20.450774-128.463814 31.206746l-4.307096 0.923022-2.097778 3.867074c-1.635243 3.000334-39.71042 74.435293-4.001127 142.601812 22.375613 42.710754 68.184939 73.629951 136.618541 92.348268 13.33368 3.656273 27.513634 6.831592 42.557258 9.54233L761.66113 720.996988zM761.66113 630.263497l0-3.483334c3.445472 0.61603 6.928806 1.213641 10.467399 1.789763C768.665661 629.221772 765.16186 629.782543 761.66113 630.263497zM820.649616 611.885941l-11.408841 2.290159c-111.301945-12.178367-181.832302-45.173852-209.632461-98.082876-26.686802-50.757011-4.886287-106.011452 1.922792-120.78697 236.993622-51.580772 267.427772-83.940784 267.334651-106.394169-0.037862-6.235005-2.673899-11.446703-6.65763-15.776312 119.379924 46.696532 30.090319 261.908058 30.090319 261.908058C873.886097 572.271712 849.066829 596.783988 820.649616 611.885941z" /></svg>