{
  "accessors": [
    {
      "bufferView": 2,
      "componentType": 5126,
      "count": 2522,
      "max": [
        27.794824600219727,
        71.507133483886719,
        39.349433898925781
      ],
      "min": [
        -27.852485656738281,
        -102.82534790039062,
        -49.344005584716797
      ],
      "type": "VEC3"
    },
    {
      "bufferView": 2,
      "byteOffset": 30264,
      "componentType": 5126,
      "count": 2522,
      "max": [
        1,
        1,
        1
      ],
      "min": [
        -1,
        -0.99984097480773926,
        -1
      ],
      "type": "VEC3"
    },
    {
      "bufferView": 3,
      "componentType": 5126,
      "count": 2522,
      "max": [
        1,
        0.99978536367416382,
        0.99958664178848267,
        1
      ],
      "min": [
        -0.99999260902404785,
        -0.99961364269256592,
        -1,
        -1
      ],
      "type": "VEC4"
    },
    {
      "bufferView": 1,
      "componentType": 5126,
      "count": 2522,
      "max": [
        0.98856455087661743,
        0.99386119842529297
      ],
      "min": [
        0.0073666572570800781,
        0.0075673162937164307
      ],
      "type": "VEC2"
    },
    {
      "bufferView": 1,
      "byteOffset": 20176,
      "componentType": 5126,
      "count": 2522,
      "max": [
        0.98856455087661743,
        0.99386119842529297
      ],
      "min": [
        0.0073666572570800781,
        0.0075673162937164307
      ],
      "type": "VEC2"
    },
    {
      "bufferView": 0,
      "componentType": 5125,
      "count": 10617,
      "max": [
        2521
      ],
      "min": [
        0
      ],
      "type": "SCALAR"
    }
  ],
  "asset": {
    "extras": {
      "author": "doppelgangerer (https://sketchfab.com/doppelgangerer)",
      "license": "CC-BY-4.0 (http://creativecommons.org/licenses/by/4.0/)",
      "source": "https://sketchfab.com/3d-models/egyptian-ka-statue-low-poly-e046bd93099d43038ce5c3b878c0b391",
      "title": "Egyptian Ka Statue low poly"
    },
    "generator": "Sketchfab-5.21.0",
    "version": "2.0"
  },
  "bufferViews": [
    {
      "buffer": 0,
      "byteLength": 42468,
      "byteOffset": 0,
      "name": "floatBufferViews",
      "target": 34963
    },
    {
      "buffer": 0,
      "byteLength": 40352,
      "byteOffset": 42468,
      "byteStride": 8,
      "name": "floatBufferViews",
      "target": 34962
    },
    {
      "buffer": 0,
      "byteLength": 60528,
      "byteOffset": 82820,
      "byteStride": 12,
      "name": "floatBufferViews",
      "target": 34962
    },
    {
      "buffer": 0,
      "byteLength": 40352,
      "byteOffset": 143348,
      "byteStride": 16,
      "name": "floatBufferViews",
      "target": 34962
    }
  ],
  "buffers": [
    {
      "byteLength": 183700,
      "uri": "scene.bin"
    }
  ],
  "images": [
    {
      "uri": "textures/lambert2_metallicRoughness.jpg"
    },
    {
      "uri": "textures/lambert2_baseColor.jpg"
    },
    {
      "uri": "textures/lambert2_normal.jpg"
    }
  ],
  "materials": [
    {
      "doubleSided": true,
      "name": "lambert2",
      "normalTexture": {
        "index": 2,
        "scale": 1,
        "texCoord": 0
      },
      "occlusionTexture": {
        "index": 0,
        "strength": 1,
        "texCoord": 0
      },
      "pbrMetallicRoughness": {
        "baseColorFactor": [
          1,
          1,
          1,
          1
        ],
        "baseColorTexture": {
          "index": 1,
          "texCoord": 0
        },
        "metallicFactor": 0.95293445119999998,
        "metallicRoughnessTexture": {
          "index": 0,
          "texCoord": 0
        },
        "roughnessFactor": 0.63586128050000001
      }
    }
  ],
  "meshes": [
    {
      "name": "polySurface32_lambert2_0",
      "primitives": [
        {
          "attributes": {
            "NORMAL": 1,
            "POSITION": 0,
            "TANGENT": 2,
            "TEXCOORD_0": 3,
            "TEXCOORD_1": 4
          },
          "indices": 5,
          "material": 0,
          "mode": 4
        }
      ]
    }
  ],
  "nodes": [
    {
      "children": [
        1
      ],
      "name": "RootNode (gltf orientation matrix)",
      "rotation": [
        -0.70710678118654746,
        -0,
        -0,
        0.70710678118654757
      ]
    },
    {
      "children": [
        2
      ],
      "name": "RootNode (model correction matrix)"
    },
    {
      "children": [
        3
      ],
      "matrix": [
        1,
        0,
        0,
        0,
        0,
        0,
        1,
        0,
        0,
        -1,
        0,
        0,
        0,
        0,
        0,
        1
      ],
      "name": "kastatue.fbx"
    },
    {
      "children": [
        4
      ],
      "name": "RootNode"
    },
    {
      "children": [
        5
      ],
      "matrix": [
        0.0099999997764825821,
        0,
        0,
        0,
        0,
        0.0099999997764825821,
        0,
        0,
        0,
        0,
        0.0099999997764825821,
        0,
        7.6327832942979512e-17,
        -7.9936057773011271e-14,
        -4.4408920985006262e-15,
        1
      ],
      "name": "polySurface32"
    },
    {
      "mesh": 0,
      "name": "polySurface32_lambert2_0"
    }
  ],
  "samplers": [
    {
      "magFilter": 9729,
      "minFilter": 9987,
      "wrapS": 10497,
      "wrapT": 10497
    }
  ],
  "scene": 0,
  "scenes": [
    {
      "name": "OSG_Scene",
      "nodes": [
        0
      ]
    }
  ],
  "textures": [
    {
      "sampler": 0,
      "source": 0
    },
    {
      "sampler": 0,
      "source": 1
    },
    {
      "sampler": 0,
      "source": 2
    }
  ]
}

